<?xml version="1.0" encoding="UTF-8"?>
<svg version="1.1" xmlns="http://www.w3.org/2000/svg" width="500" height="500">
<path d="M0 0 C1.15721054 -0.01469078 1.15721054 -0.01469078 2.33779907 -0.02967834 C19.5118473 -0.20268272 36.06336097 -0.03767925 52.8125 4.23828125 C53.6689209 4.45258789 54.5253418 4.66689453 55.40771484 4.88769531 C67.77475275 8.07395259 79.34817235 12.64605757 90.8125 18.23828125 C91.78413086 18.70572754 91.78413086 18.70572754 92.77539062 19.18261719 C107.77834533 26.48323109 121.42308555 36.11267183 133.33691406 47.79345703 C134.90628837 49.3301144 136.49575912 50.84427542 138.0859375 52.359375 C172.56243501 85.57980659 190.08376186 131.90072828 191 179.30078125 C190.48446615 226.50076889 173.34522523 269.40194896 141.625 304.17578125 C141.16230713 304.68343018 140.69961426 305.1910791 140.22290039 305.71411133 C108.37008296 339.81457359 62.68569204 358.1015999 16.62792969 360.0612793 C-35.70637488 361.76953229 -80.9823661 341.12946269 -118.68359375 305.90625 C-150.69898508 274.98967086 -168.79299148 228.7330625 -169.59008789 184.68066406 C-170.04265699 145.81160826 -160.13162137 108.06662724 -137.1875 76.23828125 C-136.80416504 75.70380371 -136.42083008 75.16932617 -136.02587891 74.61865234 C-105.85013562 32.9156517 -62.3268697 8.95110023 -11.91821289 0.70336914 C-7.93464573 0.20675927 -4.00785091 0.04206228 0 0 Z " fill="#FEFEFE" transform="translate(227.1875,63.76171875)"/>
<path d="M0 0 C3.87474457 -0.11668214 7.74903396 -0.18741231 11.625 -0.25 C13.26662109 -0.30027344 13.26662109 -0.30027344 14.94140625 -0.3515625 C21.30703343 -0.42872162 25.18329427 -0.32063305 30 4 C32 6 32 6 32.3125 9.3125 C31.97567529 13.28703154 31.48862617 14.93069439 29 18 C25.27368122 20.93348499 23.81127506 22 19 22 C20.28408042 24.96168376 21.57854165 27.91871608 22.875 30.875 C23.23980469 31.71675781 23.60460937 32.55851562 23.98046875 33.42578125 C24.33496094 34.23144531 24.68945312 35.03710938 25.0546875 35.8671875 C25.54171143 36.98262939 25.54171143 36.98262939 26.03857422 38.12060547 C26.96590354 40.17089061 26.96590354 40.17089061 29 42 C31.06874034 42.6425235 31.06874034 42.6425235 33 43 C33 43.99 33 44.98 33 46 C29.04 46 25.08 46 21 46 C20.49210937 44.49566406 19.98421875 42.99132812 19.4609375 41.44140625 C18.76693135 39.48130781 18.07154707 37.52169693 17.375 35.5625 C17.04371094 34.56927734 16.71242188 33.57605469 16.37109375 32.55273438 C15.4027525 29.87609299 14.47754228 27.43417847 13 25 C9.87533079 23.65383709 9.87533079 23.65383709 7 24 C6.49255577 25.89385437 5.99435426 27.79018666 5.5 29.6875 C5.08234375 31.27111328 5.08234375 31.27111328 4.65625 32.88671875 C4.0608285 35.71142672 3.87213508 38.12836708 4 41 C5.98 41.66 7.96 42.32 10 43 C10 43.99 10 44.98 10 46 C3.4 46 -3.2 46 -10 46 C-10 45.34 -10 44.68 -10 44 C-8.8553125 43.4121875 -8.8553125 43.4121875 -7.6875 42.8125 C-1.45308213 38.6078926 -0.55172589 28.89227023 1.125 22 C1.38925781 20.94554687 1.65351563 19.89109375 1.92578125 18.8046875 C3.22339709 13.54835531 4.37342706 8.37935788 5 3 C3.35 2.67 1.7 2.34 0 2 C0 1.34 0 0.68 0 0 Z " fill="#0D0D0D" transform="translate(350,203)"/>
<path d="M0 0 C10.89 0 21.78 0 33 0 C33 3.96 33 7.92 33 12 C32.01 11.67 31.02 11.34 30 11 C29.525625 10.030625 29.05125 9.06125 28.5625 8.0625 C26.85493562 4.71567381 26.38602574 4.23936844 23 3 C20.40845081 2.75970041 20.40845081 2.75970041 17.75 2.875 C16.1825 2.91625 14.615 2.9575 13 3 C11.68 8.28 10.36 13.56 9 19 C11.31 19 13.62 19 16 19 C18.33630748 16.60140956 18.33630748 16.60140956 20 14 C20.66 14 21.32 14 22 14 C21.48517081 19.852795 20.54642808 25.3297637 19 31 C18.01 31 17.02 31 16 31 C15.67 28.69 15.34 26.38 15 24 C12.36 23.67 9.72 23.34 7 23 C6.49309416 25.06081361 5.99475381 27.12373526 5.5 29.1875 C5.2215625 30.33605469 4.943125 31.48460937 4.65625 32.66796875 C4.08288507 35.57916094 3.7843084 38.05041738 4 41 C6.18803624 43.18803624 11.2439326 42.36746476 14.26635742 42.39160156 C18.03500676 42.31757372 20.84538018 42.18035443 23.8125 39.75 C25.58690971 37.51931351 27.01341476 35.66378016 28 33 C28.99 33 29.98 33 31 33 C30.52140759 34.60433809 30.04210442 36.20846416 29.5625 37.8125 C29.29566406 38.70582031 29.02882813 39.59914062 28.75390625 40.51953125 C28.19612127 42.35473055 27.60655425 44.18033726 27 46 C14.46 46 1.92 46 -11 46 C-10.67 45.01 -10.34 44.02 -10 43 C-9.236875 43 -8.47375 43 -7.6875 43 C-6.3571875 42.505 -6.3571875 42.505 -5 42 C-2.1395395 35.55635627 -0.51548776 28.76206576 1.1875 21.9375 C1.59645508 20.36258789 1.59645508 20.36258789 2.01367188 18.75585938 C3.36705304 13.36607825 4.35485867 8.55945252 4 3 C2.68 2.67 1.36 2.34 0 2 C0 1.34 0 0.68 0 0 Z " fill="#0A0A0A" transform="translate(294,203)"/>
<path d="M0 0 C10.89 0 21.78 0 33 0 C33 3.96 33 7.92 33 12 C32.34 12 31.68 12 31 12 C30.5875 11.071875 30.175 10.14375 29.75 9.1875 C27.98139297 5.96610862 27.08158619 4.84039175 24 3 C21.19116363 2.42770132 21.19116363 2.42770132 18.25 2.3125 C16.77273437 2.21388672 16.77273437 2.21388672 15.265625 2.11328125 C14.51796875 2.07589844 13.7703125 2.03851563 13 2 C12.86722656 2.85851562 12.73445313 3.71703125 12.59765625 4.6015625 C12.01582601 7.91000896 11.26902542 11.12120487 10.4375 14.375 C10.16808594 15.43460938 9.89867187 16.49421875 9.62109375 17.5859375 C9.41613281 18.38257813 9.21117187 19.17921875 9 20 C12.09041431 19.56591665 15.05312206 19.04346746 18 18 C19.97296178 15.52246503 19.97296178 15.52246503 21 13 C21.66 13 22.32 13 23 13 C22.55177525 17.70635989 22.01954794 22.35580527 21.125 27 C20.91230469 28.11375 20.91230469 28.11375 20.6953125 29.25 C20.46585938 29.8275 20.23640625 30.405 20 31 C19.01 31.33 18.02 31.66 17 32 C16.855625 30.865625 16.71125 29.73125 16.5625 28.5625 C16.38828522 25.19222799 16.38828522 25.19222799 15 24 C13.65252916 23.76924918 12.29622435 23.58846937 10.9375 23.4375 C9.638125 23.293125 8.33875 23.14875 7 23 C6.855625 24.299375 6.71125 25.59875 6.5625 26.9375 C6.04166667 31.625 5.52083333 36.3125 5 41 C6.98 41.66 8.96 42.32 11 43 C11 43.99 11 44.98 11 46 C4.07 46 -2.86 46 -10 46 C-10 45.34 -10 44.68 -10 44 C-8.6078125 43.566875 -8.6078125 43.566875 -7.1875 43.125 C-3.68064242 40.78709494 -3.51340911 40.39591018 -2.49609375 36.5703125 C-2.25060791 35.67489746 -2.00512207 34.77948242 -1.75219727 33.85693359 C-1.37985962 32.44275146 -1.37985962 32.44275146 -1 31 C-0.47772376 29.14029848 0.04571962 27.28092436 0.5703125 25.421875 C1.08987281 23.53161538 1.60809543 21.64098758 2.125 19.75 C2.38925781 18.79609375 2.65351563 17.8421875 2.92578125 16.859375 C4.18499979 12.25715495 5.34832694 7.73655051 6 3 C3.03 2.505 3.03 2.505 0 2 C0 1.34 0 0.68 0 0 Z " fill="#090909" transform="translate(205,203)"/>
<path d="M0 0 C5.28 0 10.56 0 16 0 C16 0.66 16 1.32 16 2 C15.01 2.33 14.02 2.66 13 3 C13.49686686 7.84445187 15.06062319 11.62313462 17.16015625 15.94921875 C18 18 18 18 18 21 C21.12304734 18.07084473 23.48990091 15.03141649 25.8125 11.4375 C26.75029297 10.01244141 26.75029297 10.01244141 27.70703125 8.55859375 C28.13371094 7.71425781 28.56039062 6.86992187 29 6 C28.67 5.01 28.34 4.02 28 3 C27.34 2.67 26.68 2.34 26 2 C26 1.34 26 0.68 26 0 C30.62 0 35.24 0 40 0 C40 0.66 40 1.32 40 2 C39.31164062 2.34675781 38.62328125 2.69351563 37.9140625 3.05078125 C33.59220764 5.94167344 31.23586341 9.90600236 28.375 14.1875 C27.80265625 15.01314453 27.2303125 15.83878906 26.640625 16.68945312 C22.19682904 23.24663577 18.87261036 29.43441086 18.3125 37.5 C18.24675781 38.3559375 18.18101562 39.211875 18.11328125 40.09375 C18.07589844 40.7228125 18.03851563 41.351875 18 42 C19.65 42.33 21.3 42.66 23 43 C23 43.99 23 44.98 23 46 C16.07 46 9.14 46 2 46 C2.33 45.01 2.66 44.02 3 43 C3.96035156 42.74863281 4.92070312 42.49726563 5.91015625 42.23828125 C9.28774294 41.28668591 9.28774294 41.28668591 10.49609375 37.91796875 C10.80675781 36.68691406 11.11742187 35.45585937 11.4375 34.1875 C11.76621094 32.96417969 12.09492188 31.74085938 12.43359375 30.48046875 C13.51337867 23.84537659 10.81642416 18.7907976 8.1875 12.8125 C7.67219727 11.58370117 7.67219727 11.58370117 7.14648438 10.33007812 C6.63118164 9.15541992 6.63118164 9.15541992 6.10546875 7.95703125 C5.79762451 7.24522705 5.48978027 6.53342285 5.17260742 5.80004883 C3.74518597 3.6088395 2.39400759 2.9644225 0 2 C0 1.34 0 0.68 0 0 Z " fill="#0B0B0B" transform="translate(149,203)"/>
<path d="M0 0 C6.6 0 13.2 0 20 0 C20 0.66 20 1.32 20 2 C19.071875 2.165 18.14375 2.33 17.1875 2.5 C13.68996806 3.72393229 13.68996806 3.72393229 12.5 7.33203125 C10.61178116 12.85964464 9.21439265 18.52108453 7.8125 24.1875 C7.40354492 25.78754883 7.40354492 25.78754883 6.98632812 27.41992188 C6.72916016 28.45052734 6.47199219 29.48113281 6.20703125 30.54296875 C5.9747583 31.47133545 5.74248535 32.39970215 5.50317383 33.35620117 C5.00207803 35.98908151 4.83404318 38.32736095 5 41 C6.70558443 42.70558443 8.85994218 42.21230676 11.1875 42.25 C15.88982084 42.18299802 19.14128126 41.91756783 23 39 C24.60896832 36.73029548 25.76647363 34.51449607 27 32 C27.99 32 28.98 32 30 32 C29.3052881 37.38401726 27.39733746 40.60599071 25 46 C13.45 46 1.9 46 -10 46 C-10 45.34 -10 44.68 -10 44 C-9.071875 43.690625 -8.14375 43.38125 -7.1875 43.0625 C0.04428937 38.38310688 0.79936853 24.93780797 2.6875 16.9375 C3.01069999 15.58129252 3.33426502 14.22517199 3.65820312 12.86914062 C4.44238433 9.58026125 5.22288202 6.29055413 6 3 C3.03 2.505 3.03 2.505 0 2 C0 1.34 0 0.68 0 0 Z " fill="#0B0B0B" transform="translate(98,203)"/>
<path d="M0 0 C6.27 0 12.54 0 19 0 C19 0.66 19 1.32 19 2 C18.21625 2.268125 17.4325 2.53625 16.625 2.8125 C13.71885077 3.84814432 13.71885077 3.84814432 12 7 C11.46343532 8.76086622 10.99171503 10.54196813 10.5625 12.33203125 C10.17964844 13.90114258 10.17964844 13.90114258 9.7890625 15.50195312 C9.52867187 16.59443359 9.26828125 17.68691406 9 18.8125 C7.51910558 24.95967806 6.03264097 31.00854876 4 37 C3.83142517 39.75065232 3.83142517 39.75065232 4 42 C5.65 42.33 7.3 42.66 9 43 C8.67 43.99 8.34 44.98 8 46 C1.73 46 -4.54 46 -11 46 C-11 45.34 -11 44.68 -11 44 C-10.21625 43.71125 -9.4325 43.4225 -8.625 43.125 C-5.90328368 42.15087746 -5.90328368 42.15087746 -4 40 C-3.31419203 38.14387699 -3.31419203 38.14387699 -2.81640625 36 C-2.61233154 35.19989502 -2.40825684 34.39979004 -2.19799805 33.57543945 C-1.98828369 32.72554443 -1.77856934 31.87564941 -1.5625 31 C-1.12398488 29.26392077 -0.68389547 27.52823838 -0.2421875 25.79296875 C-0.03045898 24.96071777 0.18126953 24.1284668 0.39941406 23.27099609 C1.10971134 20.58514842 1.94278499 17.95063554 2.8125 15.3125 C4.13621658 11.08106891 4.24540479 7.41728618 4 3 C2.68 2.67 1.36 2.34 0 2 C0 1.34 0 0.68 0 0 Z " fill="#0A0A0A" transform="translate(257,203)"/>
<path d="M0 0 C1.43655854 -0.08131463 2.8744483 -0.13933559 4.3125 -0.1875 C5.51326172 -0.23970703 5.51326172 -0.23970703 6.73828125 -0.29296875 C9 0 9 0 10.76171875 1.26953125 C12.51096583 3.71406266 12.52871998 6.05421306 12.42578125 8.99609375 C11.70392025 12.39347624 9.66841924 13.95214337 7 16 C4.24921116 16.91692961 2.64051087 17.10886083 -0.1875 17.0625 C-2.0746875 17.0315625 -2.0746875 17.0315625 -4 17 C-3.45018084 10.95198929 -2.09570426 5.69398894 0 0 Z " fill="#F9F9F9" transform="translate(363,206)"/>
<path d="M0 0 C0.66 0 1.32 0 2 0 C1.55177525 4.70635989 1.01954794 9.35580527 0.125 14 C-0.01679688 14.7425 -0.15859375 15.485 -0.3046875 16.25 C-0.53414062 16.8275 -0.76359375 17.405 -1 18 C-1.99 18.33 -2.98 18.66 -4 19 C-4.144375 17.865625 -4.28875 16.73125 -4.4375 15.5625 C-4.61171478 12.19222799 -4.61171478 12.19222799 -6 11 C-8.32817964 10.63239269 -10.6618385 10.29758419 -13 10 C-12.67 8.68 -12.34 7.36 -12 6 C-10.3603125 6.0928125 -10.3603125 6.0928125 -8.6875 6.1875 C-5.12593218 6.34198477 -5.12593218 6.34198477 -3.1875 4.6875 C-2.10008964 3.14223264 -1.04812103 1.57218154 0 0 Z " fill="#191919" transform="translate(226,216)"/>
<path d="M0 0 C0.66 0 1.32 0 2 0 C1.48517081 5.852795 0.54642808 11.3297637 -1 17 C-1.99 17 -2.98 17 -4 17 C-4.33 14.69 -4.66 12.38 -5 10 C-7.64 9.67 -10.28 9.34 -13 9 C-12.67 8.01 -12.34 7.02 -12 6 C-10.7625 5.938125 -9.525 5.87625 -8.25 5.8125 C-4.70863773 5.39954963 -4.19214408 5.20731335 -1.625 2.4375 C-0.820625 1.2309375 -0.820625 1.2309375 0 0 Z " fill="#181818" transform="translate(314,217)"/>
<path d="M0 0 C2.5 0.25 2.5 0.25 4.5 2.25 C4.625 5.375 4.625 5.375 4.5 8.25 C1.125 8.875 1.125 8.875 -2.5 9.25 C-4.5 7.25 -4.5 7.25 -4.75 4.75 C-4.40058445 1.25584452 -3.49415548 0.34941555 0 0 Z " fill="#5D5D5D" transform="translate(217.5,282.75)"/>
<path d="M0 0 C6.875 0.875 6.875 0.875 8 2 C8.1875 4.4375 8.1875 4.4375 8 7 C6 9 6 9 2.875 9.125 C1.451875 9.063125 1.451875 9.063125 0 9 C0 6.03 0 3.06 0 0 Z " fill="#5B5B5B" transform="translate(165,283)"/>
<path d="M0 0 C2.875 -0.125 2.875 -0.125 6 0 C8 2 8 2 8.1875 5.0625 C8 8 8 8 7 9 C4.66702567 9.04092937 2.33294775 9.04241723 0 9 C0 6.03 0 3.06 0 0 Z " fill="#989898" transform="translate(281,283)"/>
<path d="M0 0 C1.98 0 3.96 0 6 0 C6.68707555 2.49064888 7 4.37886292 7 7 C7.33 7.66 7.66 8.32 8 9 C7.4225 8.814375 6.845 8.62875 6.25 8.4375 C3.69606643 7.7761831 3.69606643 7.7761831 0 9 C0 6.03 0 3.06 0 0 Z " fill="#4F4F4F" transform="translate(332,283)"/>
<path d="M0 0 C4 2 4 2 6 5 C6 3.35 6 1.7 6 0 C6.99 0.33 7.98 0.66 9 1 C8.67 3.64 8.34 6.28 8 9 C7.34 9 6.68 9 6 9 C4.375 7 4.375 7 3 5 C2.67 6.32 2.34 7.64 2 9 C1.34 9 0.68 9 0 9 C0 6.03 0 3.06 0 0 Z " fill="#6B6B6B" transform="translate(229,283)"/>
<path d="M0 0 C2.31 0 4.62 0 7 0 C6.67 0.66 6.34 1.32 6 2 C5.01 1.67 4.02 1.34 3 1 C3.66 1.66 4.32 2.32 5 3 C4 6 4 6 3 8 C4.32 8.33 5.64 8.66 7 9 C4.69 9 2.38 9 0 9 C0 6.03 0 3.06 0 0 Z " fill="#5F5F5F" transform="translate(346,283)"/>
<path d="M0 0 C2.0625 0.4375 2.0625 0.4375 4 1 C4 2.98 4 4.96 4 7 C2.35 6.67 0.7 6.34 -1 6 C-1.042721 4.33388095 -1.04063832 2.66617115 -1 1 C-0.67 0.67 -0.34 0.34 0 0 Z " fill="#FCFCFC" transform="translate(216,284)"/>
<path d="M0 0 C0.66 0 1.32 0 2 0 C2.99 2.64 3.98 5.28 5 8 C4.01 8 3.02 8 2 8 C2 7.01 2 6.02 2 5 C1.01 5 0.02 5 -1 5 C-1 5.99 -1 6.98 -1 8 C-1.66 8 -2.32 8 -3 8 C-1.125 2.25 -1.125 2.25 0 0 Z " fill="#636363" transform="translate(255,284)"/>
<path d="M0 0 C1.32 0.33 2.64 0.66 4 1 C4 2.65 4 4.3 4 6 C2.68 6.33 1.36 6.66 0 7 C0 4.69 0 2.38 0 0 Z " fill="#FDFDFD" transform="translate(167,284)"/>
<path d="M0 0 C0.66 0 1.32 0 2 0 C2.99 2.64 3.98 5.28 5 8 C2 7 2 7 -1 5 C-0.67 3.35 -0.34 1.7 0 0 Z " fill="#606060" transform="translate(321,284)"/>
<path d="M0 0 C1.98 0 3.96 0 6 0 C6 0.99 6 1.98 6 3 C4.68 3.33 3.36 3.66 2 4 C2 3.01 2 2.02 2 1 C1.34 0.67 0.68 0.34 0 0 Z " fill="#A3A3A3" transform="translate(332,283)"/>
<path d="M0 0 C1.65 0 3.3 0 5 0 C5.33 1.32 5.66 2.64 6 4 C4.68 4 3.36 4 2 4 C2 3.01 2 2.02 2 1 C1.34 0.67 0.68 0.34 0 0 Z " fill="#9D9D9D" transform="translate(137,283)"/>
<path d="M0 0 C0.99 0 1.98 0 3 0 C2.67 1.65 2.34 3.3 2 5 C0.68 5.33 -0.64 5.66 -2 6 C-1.34 4.02 -0.68 2.04 0 0 Z " fill="#282828" transform="translate(125,235)"/>
</svg>
